# xmcd
#
# Track frame offsets: 
#        182
#        13380
#        34497
#        57482
#        73010
#        103347
#        133192
#        155495
#        175530
#        190720
#
# Disc length: 2842 seconds
#
# Revision: 25
# Processed by: cddbd v1.5.2PL0 Copyright (c) Steve Scherf et al.
# Submitted via: ExactAudioCopy v0.99pb4
#
DISCID=920b180a
DTITLE=John Lee Hooker - Mr. Lucky
DYEAR=1991
DGENRE=Blues
TTITLE0=I Want To Hug You
TTITLE1=Mr. Lucky
TTITLE2=Backstabbers
TTITLE3=This Is Hip
TTITLE4=I Cover The Waterfront
TTITLE5=Highway 13
TTITLE6=Stripped Me Naked
TTITLE7=Susie
TTITLE8=Crawlin' Kingsnake
TTITLE9=Father Was A Jockey
EXTD=This album is dedicated to the memory of Stevie Ray Vaughan
EXTT0=
EXTT1=
EXTT2=
EXTT3=ft Ry Cooder
EXTT4=ft Van Morrison
EXTT5=ft John Hammond
EXTT6=ft Carlos Santana
EXTT7=ft Johnny Winter
EXTT8=ft Keith Richards
EXTT9=ft John Hammond
PLAYORDER=
